<svg width="18" height="20" viewBox="0 0 18 20" fill="none" xmlns="http://www.w3.org/2000/svg">
<path d="M8.74699 9.765L7.19533 11.2692C6.93033 11.5342 6.57866 11.6675 6.22616 11.6675C5.87033 11.6675 5.51283 11.5317 5.24033 11.26L4.67283 10.715C4.34116 10.3958 4.33033 9.86833 4.64949 9.53667C4.96866 9.205 5.49699 9.195 5.82783 9.51333L6.22199 9.8925L7.58699 8.56917C7.91699 8.25 8.44449 8.25667 8.76533 8.5875C9.08533 8.9175 9.07783 9.44417 8.74699 9.765ZM12.3337 14.1667H9.83366C9.37366 14.1667 9.00033 14.54 9.00033 15C9.00033 15.46 9.37366 15.8333 9.83366 15.8333H12.3337C12.7937 15.8333 13.167 15.46 13.167 15C13.167 14.54 12.7937 14.1667 12.3337 14.1667ZM12.3337 4.16667H9.83366C9.37366 4.16667 9.00033 4.54 9.00033 5C9.00033 5.46 9.37366 5.83333 9.83366 5.83333H12.3337C12.7937 5.83333 13.167 5.46 13.167 5C13.167 4.54 12.7937 4.16667 12.3337 4.16667ZM12.3337 9.16667H10.667C10.207 9.16667 9.83366 9.54 9.83366 10C9.83366 10.46 10.207 10.8333 10.667 10.8333H12.3337C12.7937 10.8333 13.167 10.46 13.167 10C13.167 9.54 12.7937 9.16667 12.3337 9.16667ZM6.08366 13.75C5.39366 13.75 4.83366 14.31 4.83366 15C4.83366 15.69 5.39366 16.25 6.08366 16.25C6.77366 16.25 7.33366 15.69 7.33366 15C7.33366 14.31 6.77366 13.75 6.08366 13.75ZM6.08366 6.25C6.77366 6.25 7.33366 5.69 7.33366 5C7.33366 4.31 6.77366 3.75 6.08366 3.75C5.39366 3.75 4.83366 4.31 4.83366 5C4.83366 5.69 5.39366 6.25 6.08366 6.25ZM17.3337 4.16667V15.8333C17.3337 18.1308 15.4645 20 13.167 20H4.83366C2.53616 20 0.666992 18.1308 0.666992 15.8333V4.16667C0.666992 1.86917 2.53616 0 4.83366 0H13.167C15.4645 0 17.3337 1.86917 17.3337 4.16667ZM15.667 4.16667C15.667 2.78833 14.5453 1.66667 13.167 1.66667H4.83366C3.45533 1.66667 2.33366 2.78833 2.33366 4.16667V15.8333C2.33366 17.2117 3.45533 18.3333 4.83366 18.3333H13.167C14.5453 18.3333 15.667 17.2117 15.667 15.8333V4.16667Z" fill="#5870F6"/>
</svg>
